<?xml version="1.0" standalone="no"?>
<!DOCTYPE svg PUBLIC "-//W3C//DTD SVG 20010904//EN"
 "http://www.w3.org/TR/2001/REC-SVG-20010904/DTD/svg10.dtd">
<svg version="1.0" xmlns="http://www.w3.org/2000/svg"
 width="700.000000pt" height="700.000000pt" viewBox="0 0 700.000000 700.000000"
 preserveAspectRatio="xMidYMid meet">
<metadata>
Created by potrace 1.14, written by Peter Selinger 2001-2017
</metadata>
<g transform="translate(0.000000,700.000000) scale(0.100000,-0.100000)"
fill="#000000" stroke="none">
<path d="M2645 6649 c-49 -44 -107 -95 -129 -112 -21 -18 -48 -41 -60 -53 -11
-11 -52 -48 -91 -80 -105 -89 -126 -107 -150 -129 -36 -32 -73 -64 -185 -160
-58 -50 -119 -102 -135 -117 -17 -14 -82 -70 -145 -124 -63 -55 -122 -106
-130 -114 -31 -28 -144 -125 -169 -145 -14 -10 -28 -22 -31 -25 -7 -9 -156
-139 -320 -280 -80 -68 -155 -133 -167 -145 -11 -11 -79 -69 -151 -130 l-129
-110 -1 -1803 c0 -991 4 -1804 8 -1807 5 -3 48 -17 97 -31 48 -14 141 -41 206
-60 65 -19 142 -41 170 -49 29 -7 115 -32 192 -55 77 -23 147 -43 155 -45 8
-2 101 -28 205 -58 777 -225 935 -271 975 -282 25 -6 194 -55 375 -108 508
-147 784 -227 855 -248 36 -10 88 -25 115 -33 28 -8 84 -24 125 -35 41 -12 87
-26 102 -32 25 -10 35 -4 169 113 78 67 199 172 268 231 69 60 140 121 156
136 17 14 80 69 140 121 61 52 112 97 115 100 3 3 68 59 145 125 77 66 142
122 145 125 3 3 39 35 80 70 41 36 80 70 86 75 6 6 37 33 69 60 73 62 516 446
531 460 6 5 56 48 111 95 l100 85 -1 1804 c-1 1593 -3 1805 -16 1812 -13 7
-278 84 -322 94 -21 5 -433 123 -473 136 -16 5 -86 26 -155 45 -235 67 -718
207 -935 271 -27 8 -72 20 -100 28 -27 7 -183 51 -345 99 -232 67 -1179 341
-1250 361 -9 2 -54 -31 -105 -76z"/>
</g>
</svg>
